<svg version="1.0" xmlns="http://www.w3.org/2000/svg" xmlns:xlink="http://www.w3.org/1999/xlink"
     width="100%" height="100%" viewBox="0 0 340 250" preserveAspectRatio="xMidYMid meet"
     style="margin: auto; color-interpolation-filters:sRGB;">
    <g fill="#333" class="icon-text-wrapper icon-svg-group iconsvg" transform="translate(48,94)">
        <g class="iconsvg-imagesvg" transform="translate(0,0)">
            <rect fill="#333" fill-opacity="0" stroke-width="2" x="0" y="0" width="60" height="62.67"
                  class="image-rect"/>
            <svg x="0" y="0" width="60" height="62.67" filter="url(#colorsb4490697262)"
                 class="image-svg-svg primary" style="overflow: visible;">
                <path d="M47.74 0l48 50.19-8.36 8.75-38.28-40-1.33-1.4L8.38 58.67.08 50H0zm28.47 70.59L49.07 42.2l-1.33-1.4-28.22 29.52-8.59-9 36.81-38.5L84.8 61.61zM64.64 82.7L47.74 65 31.09 82.42l-9-9.44 25.65-26.85 25.93 27.13z"
                      fill="#1372f4"/>
                <path fill="#333" d="M33.8 85.24L47.95 100 61.87 85.49 47.74 70.68 33.8 85.24z"/>
            </svg>
        </g>
    </g>
</svg>
